<?xml version="1.0" encoding="UTF-8" standalone="no"?>
<svg
   xmlns:dc="http://purl.org/dc/elements/1.1/"
   xmlns:cc="http://creativecommons.org/ns#"
   xmlns:rdf="http://www.w3.org/1999/02/22-rdf-syntax-ns#"
   xmlns:svg="http://www.w3.org/2000/svg"
   xmlns="http://www.w3.org/2000/svg"
   xmlns:sodipodi="http://sodipodi.sourceforge.net/DTD/sodipodi-0.dtd"
   xmlns:inkscape="http://www.inkscape.org/namespaces/inkscape"
   version="1.1"
   id="svg2"
   xml:space="preserve"
   width="284"
   height="201.33333"
   viewBox="0 0 284 201.33333"
   sodipodi:docname="PRAGMATICK LOGO (3).ai"><metadata
     id="metadata8"><rdf:RDF><cc:Work
         rdf:about=""><dc:format>image/svg+xml</dc:format><dc:type
           rdf:resource="http://purl.org/dc/dcmitype/StillImage" /></cc:Work></rdf:RDF></metadata><defs
     id="defs6"><clipPath
       clipPathUnits="userSpaceOnUse"
       id="clipPath18"><path
         d="M 0,151 H 213 V 0 H 0 Z"
         id="path16" /></clipPath></defs><sodipodi:namedview
     pagecolor="#ffffff"
     bordercolor="#666666"
     borderopacity="1"
     objecttolerance="10"
     gridtolerance="10"
     guidetolerance="10"
     inkscape:pageopacity="0"
     inkscape:pageshadow="2"
     inkscape:window-width="640"
     inkscape:window-height="480"
     id="namedview4" /><g
     id="g10"
     inkscape:groupmode="layer"
     inkscape:label="PRAGMATICK LOGO (3)"
     transform="matrix(1.3333333,0,0,-1.3333333,0,201.33333)"><g
       id="g12"><g
         id="g14"
         clip-path="url(#clipPath18)"><g
           id="g20"
           transform="translate(78.1611,83.8848)"><path
             d="M 0,0 -5.376,-17.251 H -22.145 L -16.93,0 Z m 24.297,-21.279 c -1.008,1.973 -1.473,2.403 -1.556,2.468 -0.001,0.002 -0.003,0.003 -0.005,0.005 -0.021,-0.152 -0.041,-0.301 -0.058,-0.448 -0.069,-0.587 -0.104,-1.153 -0.104,-1.684 0,-0.33 0.018,-0.643 0.053,-0.932 0.033,-0.275 0.086,-0.541 0.157,-0.793 0.216,-0.762 -0.198,-1.56 -0.945,-1.823 -0.658,-0.233 -1.272,-0.409 -1.823,-0.524 -1.69,-0.351 -3.183,-0.183 -4.146,0.814 -0.431,0.446 -0.942,1.238 -0.942,2.483 0,0.458 0.103,1.466 0.909,5.216 l 0.295,1.413 h -4.819 l 3.851,13.48 h 8.505 c 3.423,0 6.219,0.921 8.385,2.767 2.166,1.846 3.249,4.185 3.249,7.021 0,2.247 -0.722,4.078 -2.166,5.496 -1.445,1.417 -3.344,2.126 -5.697,2.126 H 20.7 l 8.265,26.477 c 0.106,0.374 0.213,0.843 0.32,1.405 0.107,0.561 0.161,1.055 0.161,1.484 0,1.978 -0.682,3.57 -2.046,4.774 -1.364,1.203 -3.143,1.805 -5.336,1.805 -2.407,0 -4.6,-0.816 -6.579,-2.447 -1.979,-1.632 -3.37,-3.758 -4.172,-6.378 L 2.969,15.806 h -13.48 l 8.425,27.12 c 0.107,0.427 0.213,0.894 0.32,1.403 0.108,0.508 0.162,0.949 0.162,1.324 0,1.926 -0.683,3.451 -2.046,4.574 -1.365,1.123 -3.17,1.684 -5.416,1.684 -2.408,0 -4.614,-0.802 -6.62,-2.406 -2.005,-1.606 -3.41,-3.692 -4.212,-6.259 l -8.505,-27.44 h -8.264 c -3.317,0 -6.031,-0.951 -8.144,-2.848 -2.114,-1.899 -3.169,-4.293 -3.169,-7.182 0,-2.299 0.694,-4.105 2.085,-5.416 1.391,-1.31 3.317,-1.964 5.778,-1.964 h 6.336 l -4.164,-13.48 h -7.708 c -3.318,0 -6.045,-0.91 -8.184,-2.728 -2.141,-1.819 -3.21,-4.092 -3.21,-6.82 0,-2.301 0.776,-4.16 2.327,-5.576 1.551,-1.418 3.531,-2.127 5.938,-2.127 h 5.521 l -7.688,-24.872 c -0.214,-0.59 -0.374,-1.231 -0.482,-1.926 -0.107,-0.696 -0.16,-1.471 -0.16,-2.327 0,-1.979 0.748,-3.677 2.247,-5.095 1.496,-1.417 3.262,-2.126 5.295,-2.126 2.3,0 4.386,0.897 6.259,2.688 1.871,1.792 3.289,4.239 4.252,7.342 l 8.319,26.316 h 13.104 l -7.783,-25.193 c -0.214,-0.535 -0.375,-1.151 -0.482,-1.846 -0.107,-0.695 -0.16,-1.392 -0.16,-2.086 0,-2.193 0.694,-3.943 2.086,-5.255 1.391,-1.31 3.21,-1.966 5.456,-1.966 2.407,0 4.573,0.87 6.499,2.608 1.926,1.737 3.316,4.104 4.172,7.1 l 8.264,26.638 h 8.826 c 3.423,0 6.205,0.883 8.344,2.648 1.784,1.472 2.814,3.303 3.11,5.483 -0.583,0.588 -1.197,1.514 -1.92,2.925"
             style="fill:#e77c22;fill-opacity:1;fill-rule:nonzero;stroke:none"
             id="path22" /></g><g
           id="g24"
           transform="translate(90.0747,29.752)"><path
             d="m 0,0 c -0.542,-0.221 -1.075,-0.383 -1.6,-0.489 -0.525,-0.106 -1.045,-0.158 -1.561,-0.158 -0.745,0 -1.299,0.145 -1.663,0.437 -0.364,0.292 -0.546,0.734 -0.546,1.327 0,0.567 0.224,1.828 0.673,3.783 0.22,0.991 0.393,1.778 0.52,2.362 0.373,1.785 0.648,3.334 0.825,4.646 0.178,1.312 0.267,2.438 0.267,3.377 0,0.271 -0.019,0.548 -0.057,0.831 -0.038,0.284 -0.095,0.573 -0.171,0.87 0.651,0.229 1.244,0.398 1.777,0.508 0.533,0.11 1.02,0.165 1.46,0.165 0.685,0 1.204,-0.15 1.555,-0.451 0.351,-0.3 0.527,-0.738 0.527,-1.313 0,-0.466 -0.195,-1.571 -0.584,-3.314 C 1.16,11.388 0.957,10.427 0.812,9.699 0.423,7.744 0.144,6.176 -0.025,4.995 -0.195,3.814 -0.279,2.852 -0.279,2.107 c 0,-0.33 0.023,-0.67 0.07,-1.022 C -0.163,0.734 -0.093,0.372 0,0"
             style="fill:#e77c22;fill-opacity:1;fill-rule:nonzero;stroke:none"
             id="path26" /></g><g
           id="g28"
           transform="translate(108.5464,43.1963)"><path
             d="m 0,0 c -0.449,0.312 -0.946,0.552 -1.492,0.717 -0.546,0.165 -1.123,0.248 -1.733,0.248 -2.031,0 -3.7,-0.662 -5.008,-1.987 -1.308,-1.325 -1.961,-3.02 -1.961,-5.084 0,-1.465 0.406,-2.65 1.218,-3.555 0.813,-0.906 1.871,-1.359 3.174,-1.359 0.719,0 1.386,0.119 2,0.356 0.614,0.236 1.187,0.601 1.72,1.092 0.381,-0.314 0.666,-0.642 0.857,-0.985 0.19,-0.342 0.286,-0.696 0.286,-1.059 0,-0.881 -0.502,-1.596 -1.505,-2.146 -1.003,-0.551 -2.329,-0.825 -3.98,-0.825 -2.505,0 -4.524,0.738 -6.055,2.215 -1.532,1.477 -2.298,3.426 -2.298,5.847 0,1.252 0.224,2.466 0.673,3.643 0.448,1.176 1.091,2.251 1.929,3.225 1.176,1.353 2.605,2.407 4.285,3.161 1.68,0.753 3.451,1.13 5.313,1.13 1.21,0 2.12,-0.176 2.729,-0.528 C 0.762,3.756 1.066,3.229 1.066,2.526 1.066,2.162 0.979,1.775 0.806,1.364 0.633,0.954 0.364,0.499 0,0"
             style="fill:#e77c22;fill-opacity:1;fill-rule:nonzero;stroke:none"
             id="path30" /></g><g
           id="g32"
           transform="translate(124.7837,47.5635)"><path
             d="m 0,0 c 0.863,-0.271 1.509,-0.616 1.936,-1.035 0.427,-0.419 0.641,-0.916 0.641,-1.491 0,-0.762 -1.667,-2.354 -5.002,-4.774 -1.117,-0.804 -1.997,-1.447 -2.64,-1.929 0.668,-0.746 1.531,-1.778 2.589,-3.098 1.676,-2.091 2.912,-3.284 3.707,-3.58 -0.245,-0.889 -0.615,-1.579 -1.11,-2.07 -0.496,-0.491 -1.065,-0.736 -1.708,-0.736 -0.389,0 -0.736,0.091 -1.041,0.273 -0.305,0.182 -0.656,0.531 -1.054,1.047 -0.059,0.077 -0.658,0.916 -1.796,2.52 -1.138,1.604 -2.283,3.181 -3.434,4.729 -0.229,-1.142 -0.398,-2.181 -0.508,-3.117 -0.11,-0.934 -0.165,-1.75 -0.165,-2.443 0,-0.339 0.023,-0.684 0.07,-1.035 0.046,-0.351 0.116,-0.709 0.209,-1.073 -0.541,-0.211 -1.077,-0.373 -1.606,-0.482 -0.528,-0.11 -1.051,-0.165 -1.567,-0.165 -0.652,0 -1.151,0.152 -1.499,0.457 -0.347,0.305 -0.52,0.74 -0.52,1.308 0,0.566 0.22,1.828 0.66,3.783 0.229,0.99 0.406,1.777 0.533,2.361 0.373,1.811 0.648,3.368 0.826,4.672 0.177,1.303 0.266,2.42 0.266,3.352 0,0.27 -0.021,0.549 -0.063,0.838 -0.043,0.287 -0.098,0.575 -0.165,0.863 0.677,0.228 1.275,0.397 1.796,0.508 0.52,0.109 0.967,0.165 1.339,0.165 0.652,0 1.149,-0.153 1.492,-0.457 0.343,-0.305 0.514,-0.742 0.514,-1.308 0,-0.551 -0.317,-2.234 -0.952,-5.053 -0.119,-0.516 -0.207,-0.91 -0.267,-1.18 l 3.136,2.564 c 1.43,1.176 2.603,2.238 3.517,3.187 C -0.952,-1.452 -0.33,-0.652 0,0"
             style="fill:#e77c22;fill-opacity:1;fill-rule:nonzero;stroke:none"
             id="path34" /></g><g
           id="g36"
           transform="translate(78.1611,83.8848)"><path
             d="M 0,0 -5.376,-17.251 H -22.145 L -16.93,0 Z m 33.137,13.68 c -1.445,1.417 -3.344,2.126 -5.697,2.126 H 20.7 2.969 -10.511 -28.403 l -22.546,-73.013 c -0.642,-1.977 -0.642,-3.397 -0.642,-4.253 0,-1.979 0.748,-3.677 2.247,-5.095 1.496,-1.417 3.262,-2.126 5.295,-2.126 2.3,0 4.386,0.897 6.259,2.688 1.871,1.792 3.289,4.239 4.252,7.342 l 10.747,33.999 h 13.159 c 18.345,0 18.345,0 20.945,9.568 l 3.851,13.48 h 8.505 c 3.423,0 6.219,0.921 8.385,2.767 2.166,1.846 3.249,4.185 3.249,7.021 0,2.247 -0.722,4.078 -2.166,5.496"
             style="fill:#023573;fill-opacity:1;fill-rule:nonzero;stroke:none"
             id="path38" /></g><g
           id="g40"
           transform="translate(121.4521,73.6611)"><path
             d="m 0,0 c -0.465,-0.821 -1.058,-1.879 -1.777,-3.174 -0.72,-1.295 -1.202,-2.163 -1.448,-2.602 H 1.32 C 1.066,-4.516 0.827,-3.402 0.603,-2.438 0.379,-1.473 0.178,-0.66 0,0 m 7.795,-12.276 c -0.576,-0.415 -1.119,-0.722 -1.631,-0.921 -0.513,-0.199 -1.018,-0.298 -1.518,-0.298 -0.693,0 -1.246,0.353 -1.656,1.059 -0.411,0.707 -0.785,1.983 -1.124,3.829 h -6.703 c -0.533,-0.831 -0.927,-1.581 -1.181,-2.254 -0.253,-0.673 -0.38,-1.285 -0.38,-1.834 0,-0.136 0.002,-0.238 0.006,-0.305 0.004,-0.068 0.011,-0.127 0.019,-0.178 -0.398,-0.119 -0.764,-0.205 -1.098,-0.26 -0.335,-0.055 -0.646,-0.083 -0.933,-0.083 -0.703,0 -1.234,0.146 -1.594,0.438 -0.359,0.292 -0.539,0.726 -0.539,1.302 0,0.685 0.728,2.086 2.183,4.202 0.288,0.406 0.508,0.724 0.661,0.952 1.439,2.115 2.604,3.887 3.497,5.313 0.893,1.426 1.674,2.744 2.342,3.955 -0.076,0.245 -0.165,0.482 -0.266,0.711 -0.102,0.228 -0.216,0.464 -0.343,0.71 0.542,0.271 1.06,0.472 1.555,0.603 0.495,0.132 0.98,0.197 1.454,0.197 0.906,0 1.585,-0.239 2.037,-0.717 C 3.036,3.667 3.432,2.708 3.771,1.27 3.957,0.474 4.215,-0.652 4.545,-2.107 5.84,-7.744 6.923,-11.134 7.795,-12.276"
             style="fill:#ffffff;fill-opacity:1;fill-rule:nonzero;stroke:none"
             id="path42" /></g><g
           id="g44"
           transform="translate(121.4521,73.6611)"><path
             d="m 0,0 c -0.465,-0.821 -1.058,-1.879 -1.777,-3.174 -0.72,-1.295 -1.202,-2.163 -1.448,-2.602 H 1.32 C 1.066,-4.516 0.827,-3.402 0.603,-2.438 0.379,-1.473 0.178,-0.66 0,0 Z m 7.795,-12.276 c -0.576,-0.415 -1.119,-0.722 -1.631,-0.921 -0.513,-0.199 -1.018,-0.298 -1.518,-0.298 -0.693,0 -1.246,0.353 -1.656,1.059 -0.411,0.707 -0.785,1.983 -1.124,3.829 h -6.703 c -0.533,-0.831 -0.927,-1.581 -1.181,-2.254 -0.253,-0.673 -0.38,-1.285 -0.38,-1.834 0,-0.136 0.002,-0.238 0.006,-0.305 0.004,-0.068 0.011,-0.127 0.019,-0.178 -0.398,-0.119 -0.764,-0.205 -1.098,-0.26 -0.335,-0.055 -0.646,-0.083 -0.933,-0.083 -0.703,0 -1.234,0.146 -1.594,0.438 -0.359,0.292 -0.539,0.726 -0.539,1.302 0,0.685 0.728,2.086 2.183,4.202 0.288,0.406 0.508,0.724 0.661,0.952 1.439,2.115 2.604,3.887 3.497,5.313 0.893,1.426 1.674,2.744 2.342,3.955 -0.076,0.245 -0.165,0.482 -0.266,0.711 -0.102,0.228 -0.216,0.464 -0.343,0.71 0.542,0.271 1.06,0.472 1.555,0.603 0.495,0.132 0.98,0.197 1.454,0.197 0.906,0 1.585,-0.239 2.037,-0.717 C 3.036,3.667 3.432,2.708 3.771,1.27 3.957,0.474 4.215,-0.652 4.545,-2.107 5.84,-7.744 6.923,-11.134 7.795,-12.276 Z"
             style="fill:none;stroke:#ffffff;stroke-width:3;stroke-linecap:butt;stroke-linejoin:round;stroke-miterlimit:10;stroke-dasharray:none;stroke-opacity:1"
             id="path46" /></g><g
           id="g48"
           transform="translate(142.1963,63.835)"><path
             d="M 0,0 C 0.144,0.609 0.254,1.183 0.33,1.72 0.406,2.258 0.444,2.759 0.444,3.225 0.444,3.58 0.419,3.896 0.368,4.17 0.317,4.445 0.246,4.685 0.152,4.888 0.668,5.116 1.143,5.285 1.574,5.396 2.006,5.505 2.417,5.561 2.806,5.561 3.466,5.561 3.965,5.394 4.304,5.059 4.642,4.725 4.812,4.231 4.812,3.58 4.812,2.666 4.676,1.709 4.405,0.711 4.134,-0.288 3.809,-1.071 3.428,-1.638 2.903,-2.434 2.088,-3.041 0.984,-3.46 c -1.105,-0.419 -2.44,-0.628 -4.005,-0.628 -2.565,0 -4.622,0.698 -6.17,2.095 -1.549,1.396 -2.324,3.245 -2.324,5.548 0,1.726 0.407,3.357 1.219,4.893 0.813,1.536 1.955,2.838 3.428,3.905 1.227,0.871 2.537,1.543 3.929,2.018 1.392,0.474 2.778,0.711 4.158,0.711 1.159,0 2.039,-0.178 2.64,-0.533 0.601,-0.356 0.902,-0.881 0.902,-1.574 0,-0.356 -0.089,-0.737 -0.267,-1.143 C 4.316,11.426 4.042,10.964 3.669,10.448 3.212,10.77 2.717,11.011 2.184,11.172 1.65,11.332 1.079,11.413 0.47,11.413 -0.334,11.413 -1.128,11.281 -1.911,11.02 -2.693,10.757 -3.419,10.385 -4.088,9.902 -4.994,9.242 -5.708,8.394 -6.233,7.356 -6.758,6.32 -7.021,5.234 -7.021,4.101 c 0,-1.389 0.407,-2.506 1.219,-3.352 0.813,-0.847 1.887,-1.27 3.225,-1.27 0.406,0 0.823,0.042 1.25,0.127 C -0.899,-0.31 -0.457,-0.178 0,0"
             style="fill:#ffffff;fill-opacity:1;fill-rule:nonzero;stroke:none"
             id="path50" /></g><g
           id="g52"
           transform="translate(142.1963,63.835)"><path
             d="M 0,0 C 0.144,0.609 0.254,1.183 0.33,1.72 0.406,2.258 0.444,2.759 0.444,3.225 0.444,3.58 0.419,3.896 0.368,4.17 0.317,4.445 0.246,4.685 0.152,4.888 0.668,5.116 1.143,5.285 1.574,5.396 2.006,5.505 2.417,5.561 2.806,5.561 3.466,5.561 3.965,5.394 4.304,5.059 4.642,4.725 4.812,4.231 4.812,3.58 4.812,2.666 4.676,1.709 4.405,0.711 4.134,-0.288 3.809,-1.071 3.428,-1.638 2.903,-2.434 2.088,-3.041 0.984,-3.46 c -1.105,-0.419 -2.44,-0.628 -4.005,-0.628 -2.565,0 -4.622,0.698 -6.17,2.095 -1.549,1.396 -2.324,3.245 -2.324,5.548 0,1.726 0.407,3.357 1.219,4.893 0.813,1.536 1.955,2.838 3.428,3.905 1.227,0.871 2.537,1.543 3.929,2.018 1.392,0.474 2.778,0.711 4.158,0.711 1.159,0 2.039,-0.178 2.64,-0.533 0.601,-0.356 0.902,-0.881 0.902,-1.574 0,-0.356 -0.089,-0.737 -0.267,-1.143 C 4.316,11.426 4.042,10.964 3.669,10.448 3.212,10.77 2.717,11.011 2.184,11.172 1.65,11.332 1.079,11.413 0.47,11.413 -0.334,11.413 -1.128,11.281 -1.911,11.02 -2.693,10.757 -3.419,10.385 -4.088,9.902 -4.994,9.242 -5.708,8.394 -6.233,7.356 -6.758,6.32 -7.021,5.234 -7.021,4.101 c 0,-1.389 0.407,-2.506 1.219,-3.352 0.813,-0.847 1.887,-1.27 3.225,-1.27 0.406,0 0.823,0.042 1.25,0.127 C -0.899,-0.31 -0.457,-0.178 0,0 Z"
             style="fill:none;stroke:#ffffff;stroke-width:3;stroke-linecap:butt;stroke-linejoin:round;stroke-miterlimit:10;stroke-dasharray:none;stroke-opacity:1"
             id="path54" /></g><g
           id="g56"
           transform="translate(172.9824,77.8506)"><path
             d="m 0,0 c -0.567,-1.16 -1.012,-2.734 -1.333,-4.723 -0.321,-1.989 -0.482,-4.176 -0.482,-6.563 0,-1.244 0.054,-2.292 0.165,-3.143 0.11,-0.85 0.288,-1.572 0.533,-2.164 -0.491,-0.33 -1.012,-0.582 -1.562,-0.756 -0.55,-0.172 -1.087,-0.259 -1.612,-0.259 -0.601,0 -1.058,0.207 -1.371,0.622 -0.313,0.414 -0.47,1.023 -0.47,1.828 0,0.465 0.216,2.361 0.648,5.687 0.22,1.633 0.393,2.941 0.52,3.923 -1.303,-1.93 -2.706,-4.124 -4.208,-6.583 -1.503,-2.458 -2.423,-3.887 -2.762,-4.284 -0.22,-0.246 -0.417,-0.419 -0.59,-0.521 -0.173,-0.101 -0.357,-0.152 -0.552,-0.152 -0.728,0 -1.608,1.841 -2.641,5.523 -0.685,2.419 -1.278,4.409 -1.777,5.966 -0.339,-1.541 -0.743,-3.474 -1.213,-5.801 -0.469,-2.329 -0.785,-3.746 -0.945,-4.253 -0.203,-0.653 -0.516,-1.15 -0.94,-1.493 -0.423,-0.342 -0.927,-0.513 -1.511,-0.513 -0.499,0 -0.994,0.101 -1.485,0.305 -0.491,0.203 -0.914,0.482 -1.269,0.837 0.499,0.745 0.975,1.663 1.428,2.755 0.452,1.092 0.878,2.349 1.276,3.771 0.49,1.734 0.852,3.222 1.085,4.462 0.233,1.24 0.349,2.283 0.349,3.13 0,0.27 -0.027,0.575 -0.082,0.914 -0.055,0.338 -0.134,0.711 -0.235,1.117 0.533,0.279 1.045,0.486 1.536,0.622 0.491,0.135 0.969,0.203 1.435,0.203 0.414,0 0.797,-0.065 1.148,-0.197 0.352,-0.131 0.667,-0.332 0.946,-0.603 0.466,-0.431 1.105,-1.993 1.917,-4.684 0.339,-1.118 0.61,-2.002 0.813,-2.654 0.347,-1.075 0.609,-1.82 0.787,-2.234 0.178,-0.415 0.326,-0.622 0.444,-0.622 0.212,0 0.944,0.985 2.197,2.958 l 0.584,0.914 c 0.304,0.482 0.728,1.163 1.269,2.044 1.379,2.225 2.404,3.635 3.072,4.227 0.33,0.305 0.718,0.538 1.162,0.699 0.444,0.16 0.933,0.241 1.466,0.241 0.398,0 0.785,-0.047 1.161,-0.14 C -0.722,0.312 -0.355,0.178 0,0"
             style="fill:#ffffff;fill-opacity:1;fill-rule:nonzero;stroke:none"
             id="path58" /></g><g
           id="g60"
           transform="translate(172.9824,77.8506)"><path
             d="m 0,0 c -0.567,-1.16 -1.012,-2.734 -1.333,-4.723 -0.321,-1.989 -0.482,-4.176 -0.482,-6.563 0,-1.244 0.054,-2.292 0.165,-3.143 0.11,-0.85 0.288,-1.572 0.533,-2.164 -0.491,-0.33 -1.012,-0.582 -1.562,-0.756 -0.55,-0.172 -1.087,-0.259 -1.612,-0.259 -0.601,0 -1.058,0.207 -1.371,0.622 -0.313,0.414 -0.47,1.023 -0.47,1.828 0,0.465 0.216,2.361 0.648,5.687 0.22,1.633 0.393,2.941 0.52,3.923 -1.303,-1.93 -2.706,-4.124 -4.208,-6.583 -1.503,-2.458 -2.423,-3.887 -2.762,-4.284 -0.22,-0.246 -0.417,-0.419 -0.59,-0.521 -0.173,-0.101 -0.357,-0.152 -0.552,-0.152 -0.728,0 -1.608,1.841 -2.641,5.523 -0.685,2.419 -1.278,4.409 -1.777,5.966 -0.339,-1.541 -0.743,-3.474 -1.213,-5.801 -0.469,-2.329 -0.785,-3.746 -0.945,-4.253 -0.203,-0.653 -0.516,-1.15 -0.94,-1.493 -0.423,-0.342 -0.927,-0.513 -1.511,-0.513 -0.499,0 -0.994,0.101 -1.485,0.305 -0.491,0.203 -0.914,0.482 -1.269,0.837 0.499,0.745 0.975,1.663 1.428,2.755 0.452,1.092 0.878,2.349 1.276,3.771 0.49,1.734 0.852,3.222 1.085,4.462 0.233,1.24 0.349,2.283 0.349,3.13 0,0.27 -0.027,0.575 -0.082,0.914 -0.055,0.338 -0.134,0.711 -0.235,1.117 0.533,0.279 1.045,0.486 1.536,0.622 0.491,0.135 0.969,0.203 1.435,0.203 0.414,0 0.797,-0.065 1.148,-0.197 0.352,-0.131 0.667,-0.332 0.946,-0.603 0.466,-0.431 1.105,-1.993 1.917,-4.684 0.339,-1.118 0.61,-2.002 0.813,-2.654 0.347,-1.075 0.609,-1.82 0.787,-2.234 0.178,-0.415 0.326,-0.622 0.444,-0.622 0.212,0 0.944,0.985 2.197,2.958 l 0.584,0.914 c 0.304,0.482 0.728,1.163 1.269,2.044 1.379,2.225 2.404,3.635 3.072,4.227 0.33,0.305 0.718,0.538 1.162,0.699 0.444,0.16 0.933,0.241 1.466,0.241 0.398,0 0.785,-0.047 1.161,-0.14 C -0.722,0.312 -0.355,0.178 0,0 Z"
             style="fill:none;stroke:#ffffff;stroke-width:3;stroke-linecap:butt;stroke-linejoin:round;stroke-miterlimit:10;stroke-dasharray:none;stroke-opacity:1"
             id="path62" /></g><g
           id="g64"
           transform="translate(184.0908,73.6611)"><path
             d="m 0,0 c -0.466,-0.821 -1.058,-1.879 -1.777,-3.174 -0.72,-1.295 -1.202,-2.163 -1.448,-2.602 H 1.32 C 1.066,-4.516 0.827,-3.402 0.603,-2.438 0.379,-1.473 0.178,-0.66 0,0 m 7.795,-12.276 c -0.575,-0.415 -1.119,-0.722 -1.632,-0.921 -0.512,-0.199 -1.017,-0.298 -1.517,-0.298 -0.694,0 -1.246,0.353 -1.657,1.059 -0.41,0.707 -0.784,1.983 -1.123,3.829 h -6.703 c -0.533,-0.831 -0.927,-1.581 -1.181,-2.254 -0.253,-0.673 -0.38,-1.285 -0.38,-1.834 0,-0.136 0.002,-0.238 0.006,-0.305 0.004,-0.068 0.01,-0.127 0.019,-0.178 -0.398,-0.119 -0.764,-0.205 -1.099,-0.26 -0.334,-0.055 -0.644,-0.083 -0.932,-0.083 -0.702,0 -1.234,0.146 -1.593,0.438 -0.36,0.292 -0.54,0.726 -0.54,1.302 0,0.685 0.727,2.086 2.183,4.202 0.289,0.406 0.508,0.724 0.661,0.952 1.438,2.115 2.604,3.887 3.497,5.313 0.893,1.426 1.674,2.744 2.342,3.955 -0.076,0.245 -0.165,0.482 -0.266,0.711 -0.102,0.228 -0.216,0.464 -0.343,0.71 0.542,0.271 1.06,0.472 1.556,0.603 0.494,0.132 0.979,0.197 1.453,0.197 0.905,0 1.585,-0.239 2.037,-0.717 C 3.036,3.667 3.432,2.708 3.771,1.27 3.957,0.474 4.215,-0.652 4.545,-2.107 5.84,-7.744 6.923,-11.134 7.795,-12.276"
             style="fill:#ffffff;fill-opacity:1;fill-rule:nonzero;stroke:none"
             id="path66" /></g><g
           id="g68"
           transform="translate(184.0908,73.6611)"><path
             d="m 0,0 c -0.466,-0.821 -1.058,-1.879 -1.777,-3.174 -0.72,-1.295 -1.202,-2.163 -1.448,-2.602 H 1.32 C 1.066,-4.516 0.827,-3.402 0.603,-2.438 0.379,-1.473 0.178,-0.66 0,0 Z m 7.795,-12.276 c -0.575,-0.415 -1.119,-0.722 -1.632,-0.921 -0.512,-0.199 -1.017,-0.298 -1.517,-0.298 -0.694,0 -1.246,0.353 -1.657,1.059 -0.41,0.707 -0.784,1.983 -1.123,3.829 h -6.703 c -0.533,-0.831 -0.927,-1.581 -1.181,-2.254 -0.253,-0.673 -0.38,-1.285 -0.38,-1.834 0,-0.136 0.002,-0.238 0.006,-0.305 0.004,-0.068 0.01,-0.127 0.019,-0.178 -0.398,-0.119 -0.764,-0.205 -1.099,-0.26 -0.334,-0.055 -0.644,-0.083 -0.932,-0.083 -0.702,0 -1.234,0.146 -1.593,0.438 -0.36,0.292 -0.54,0.726 -0.54,1.302 0,0.685 0.727,2.086 2.183,4.202 0.289,0.406 0.508,0.724 0.661,0.952 1.438,2.115 2.604,3.887 3.497,5.313 0.893,1.426 1.674,2.744 2.342,3.955 -0.076,0.245 -0.165,0.482 -0.266,0.711 -0.102,0.228 -0.216,0.464 -0.343,0.71 0.542,0.271 1.06,0.472 1.556,0.603 0.494,0.132 0.979,0.197 1.453,0.197 0.905,0 1.585,-0.239 2.037,-0.717 C 3.036,3.667 3.432,2.708 3.771,1.27 3.957,0.474 4.215,-0.652 4.545,-2.107 5.84,-7.744 6.923,-11.134 7.795,-12.276 Z"
             style="fill:none;stroke:#ffffff;stroke-width:3;stroke-linecap:butt;stroke-linejoin:round;stroke-miterlimit:10;stroke-dasharray:none;stroke-opacity:1"
             id="path70" /></g><g
           id="g72"
           transform="translate(100.1494,69.5986)"><path
             d="m 0,0 c 0.169,-0.034 0.345,-0.06 0.527,-0.076 0.182,-0.018 0.362,-0.026 0.539,-0.026 1.202,0 2.157,0.311 2.863,0.933 0.707,0.622 1.06,1.458 1.06,2.508 0,0.736 -0.245,1.313 -0.736,1.732 C 3.762,5.49 3.081,5.7 2.209,5.7 2.031,5.7 1.849,5.691 1.663,5.675 1.477,5.657 1.287,5.632 1.092,5.599 0.889,4.642 0.696,3.696 0.514,2.761 0.332,1.826 0.161,0.905 0,0 M 4.024,-1.473 C 4.591,-1.541 5.099,-1.716 5.548,-2 5.997,-2.283 6.381,-2.671 6.703,-3.161 6.838,-3.364 7.025,-3.652 7.262,-4.024 8.387,-5.794 9.365,-6.868 10.194,-7.249 9.771,-8.036 9.299,-8.631 8.779,-9.033 8.258,-9.435 7.698,-9.636 7.097,-9.636 c -0.643,0 -1.206,0.216 -1.689,0.648 -0.482,0.431 -1.071,1.324 -1.764,2.678 -0.805,1.575 -1.456,2.56 -1.956,2.958 -0.499,0.398 -1.121,0.597 -1.866,0.597 H -0.47 c -0.144,-0.711 -0.254,-1.391 -0.33,-2.038 -0.076,-0.647 -0.114,-1.268 -0.114,-1.859 0,-0.39 0.021,-0.76 0.063,-1.112 0.043,-0.35 0.11,-0.691 0.204,-1.021 -0.602,-0.212 -1.145,-0.368 -1.632,-0.47 -0.487,-0.101 -0.941,-0.152 -1.365,-0.152 -0.584,0 -1.049,0.179 -1.396,0.539 -0.347,0.36 -0.521,0.84 -0.521,1.441 0,0.55 0.292,2.184 0.876,4.901 0.178,0.854 0.318,1.523 0.419,2.005 0.322,1.515 0.567,2.918 0.737,4.209 0.169,1.291 0.254,2.368 0.254,3.231 0,0.312 -0.013,0.626 -0.038,0.939 -0.026,0.313 -0.064,0.626 -0.115,0.94 0.424,-0.034 0.87,-0.062 1.34,-0.083 0.469,-0.021 0.958,-0.031 1.466,-0.031 0.313,0 0.802,0.018 1.466,0.056 0.665,0.038 1.179,0.058 1.543,0.058 2.242,0 3.94,-0.421 5.091,-1.264 C 8.628,6.692 9.204,5.454 9.204,3.821 9.204,2.425 8.762,1.273 7.877,0.368 6.993,-0.538 5.708,-1.151 4.024,-1.473"
             style="fill:#023573;fill-opacity:1;fill-rule:nonzero;stroke:none"
             id="path74" /></g><g
           id="g76"
           transform="translate(121.4521,73.6611)"><path
             d="m 0,0 c -0.465,-0.821 -1.058,-1.879 -1.777,-3.174 -0.72,-1.295 -1.202,-2.163 -1.448,-2.602 H 1.32 C 1.066,-4.516 0.827,-3.402 0.603,-2.438 0.379,-1.473 0.178,-0.66 0,0 m 7.795,-12.276 c -0.576,-0.415 -1.119,-0.722 -1.631,-0.921 -0.513,-0.199 -1.018,-0.298 -1.518,-0.298 -0.693,0 -1.246,0.353 -1.656,1.059 -0.411,0.707 -0.785,1.983 -1.124,3.829 h -6.703 c -0.533,-0.831 -0.927,-1.581 -1.181,-2.254 -0.253,-0.673 -0.38,-1.285 -0.38,-1.834 0,-0.136 0.002,-0.238 0.006,-0.305 0.004,-0.068 0.011,-0.127 0.019,-0.178 -0.398,-0.119 -0.764,-0.205 -1.098,-0.26 -0.335,-0.055 -0.646,-0.083 -0.933,-0.083 -0.703,0 -1.234,0.146 -1.594,0.438 -0.359,0.292 -0.539,0.726 -0.539,1.302 0,0.685 0.728,2.086 2.183,4.202 0.288,0.406 0.508,0.724 0.661,0.952 1.439,2.115 2.604,3.887 3.497,5.313 0.893,1.426 1.674,2.744 2.342,3.955 -0.076,0.245 -0.165,0.482 -0.266,0.711 -0.102,0.228 -0.216,0.464 -0.343,0.71 0.542,0.271 1.06,0.472 1.555,0.603 0.495,0.132 0.98,0.197 1.454,0.197 0.906,0 1.585,-0.239 2.037,-0.717 C 3.036,3.667 3.432,2.708 3.771,1.27 3.957,0.474 4.215,-0.652 4.545,-2.107 5.84,-7.744 6.923,-11.134 7.795,-12.276"
             style="fill:#023573;fill-opacity:1;fill-rule:nonzero;stroke:none"
             id="path78" /></g><g
           id="g80"
           transform="translate(142.1963,63.835)"><path
             d="M 0,0 C 0.144,0.609 0.254,1.183 0.33,1.72 0.406,2.258 0.444,2.759 0.444,3.225 0.444,3.58 0.419,3.896 0.368,4.17 0.317,4.445 0.246,4.685 0.152,4.888 0.668,5.116 1.143,5.285 1.574,5.396 2.006,5.505 2.417,5.561 2.806,5.561 3.466,5.561 3.965,5.394 4.304,5.059 4.642,4.725 4.812,4.231 4.812,3.58 4.812,2.666 4.676,1.709 4.405,0.711 4.134,-0.288 3.809,-1.071 3.428,-1.638 2.903,-2.434 2.088,-3.041 0.984,-3.46 c -1.105,-0.419 -2.44,-0.628 -4.005,-0.628 -2.565,0 -4.622,0.698 -6.17,2.095 -1.549,1.396 -2.324,3.245 -2.324,5.548 0,1.726 0.407,3.357 1.219,4.893 0.813,1.536 1.955,2.838 3.428,3.905 1.227,0.871 2.537,1.543 3.929,2.018 1.392,0.474 2.778,0.711 4.158,0.711 1.159,0 2.039,-0.178 2.64,-0.533 0.601,-0.356 0.902,-0.881 0.902,-1.574 0,-0.356 -0.089,-0.737 -0.267,-1.143 C 4.316,11.426 4.042,10.964 3.669,10.448 3.212,10.77 2.717,11.011 2.184,11.172 1.65,11.332 1.079,11.413 0.47,11.413 -0.334,11.413 -1.128,11.281 -1.911,11.02 -2.693,10.757 -3.419,10.385 -4.088,9.902 -4.994,9.242 -5.708,8.394 -6.233,7.356 -6.758,6.32 -7.021,5.234 -7.021,4.101 c 0,-1.389 0.407,-2.506 1.219,-3.352 0.813,-0.847 1.887,-1.27 3.225,-1.27 0.406,0 0.823,0.042 1.25,0.127 C -0.899,-0.31 -0.457,-0.178 0,0"
             style="fill:#023573;fill-opacity:1;fill-rule:nonzero;stroke:none"
             id="path82" /></g><g
           id="g84"
           transform="translate(172.9824,77.8506)"><path
             d="m 0,0 c -0.567,-1.16 -1.012,-2.734 -1.333,-4.723 -0.321,-1.989 -0.482,-4.176 -0.482,-6.563 0,-1.244 0.054,-2.292 0.165,-3.143 0.11,-0.85 0.288,-1.572 0.533,-2.164 -0.491,-0.33 -1.012,-0.582 -1.562,-0.756 -0.55,-0.172 -1.087,-0.259 -1.612,-0.259 -0.601,0 -1.058,0.207 -1.371,0.622 -0.313,0.414 -0.47,1.023 -0.47,1.828 0,0.465 0.216,2.361 0.648,5.687 0.22,1.633 0.393,2.941 0.52,3.923 -1.303,-1.93 -2.706,-4.124 -4.208,-6.583 -1.503,-2.458 -2.423,-3.887 -2.762,-4.284 -0.22,-0.246 -0.417,-0.419 -0.59,-0.521 -0.173,-0.101 -0.357,-0.152 -0.552,-0.152 -0.728,0 -1.608,1.841 -2.641,5.523 -0.685,2.419 -1.278,4.409 -1.777,5.966 -0.339,-1.541 -0.743,-3.474 -1.213,-5.801 -0.469,-2.329 -0.785,-3.746 -0.945,-4.253 -0.203,-0.653 -0.516,-1.15 -0.94,-1.493 -0.423,-0.342 -0.927,-0.513 -1.511,-0.513 -0.499,0 -0.994,0.101 -1.485,0.305 -0.491,0.203 -0.914,0.482 -1.269,0.837 0.499,0.745 0.975,1.663 1.428,2.755 0.452,1.092 0.878,2.349 1.276,3.771 0.49,1.734 0.852,3.222 1.085,4.462 0.233,1.24 0.349,2.283 0.349,3.13 0,0.27 -0.027,0.575 -0.082,0.914 -0.055,0.338 -0.134,0.711 -0.235,1.117 0.533,0.279 1.045,0.486 1.536,0.622 0.491,0.135 0.969,0.203 1.435,0.203 0.414,0 0.797,-0.065 1.148,-0.197 0.352,-0.131 0.667,-0.332 0.946,-0.603 0.466,-0.431 1.105,-1.993 1.917,-4.684 0.339,-1.118 0.61,-2.002 0.813,-2.654 0.347,-1.075 0.609,-1.82 0.787,-2.234 0.178,-0.415 0.326,-0.622 0.444,-0.622 0.212,0 0.944,0.985 2.197,2.958 l 0.584,0.914 c 0.304,0.482 0.728,1.163 1.269,2.044 1.379,2.225 2.404,3.635 3.072,4.227 0.33,0.305 0.718,0.538 1.162,0.699 0.444,0.16 0.933,0.241 1.466,0.241 0.398,0 0.785,-0.047 1.161,-0.14 C -0.722,0.312 -0.355,0.178 0,0"
             style="fill:#023573;fill-opacity:1;fill-rule:nonzero;stroke:none"
             id="path86" /></g><g
           id="g88"
           transform="translate(184.0908,73.6611)"><path
             d="m 0,0 c -0.466,-0.821 -1.058,-1.879 -1.777,-3.174 -0.72,-1.295 -1.202,-2.163 -1.448,-2.602 H 1.32 C 1.066,-4.516 0.827,-3.402 0.603,-2.438 0.379,-1.473 0.178,-0.66 0,0 m 7.795,-12.276 c -0.575,-0.415 -1.119,-0.722 -1.632,-0.921 -0.512,-0.199 -1.017,-0.298 -1.517,-0.298 -0.694,0 -1.246,0.353 -1.657,1.059 -0.41,0.707 -0.784,1.983 -1.123,3.829 h -6.703 c -0.533,-0.831 -0.927,-1.581 -1.181,-2.254 -0.253,-0.673 -0.38,-1.285 -0.38,-1.834 0,-0.136 0.002,-0.238 0.006,-0.305 0.004,-0.068 0.01,-0.127 0.019,-0.178 -0.398,-0.119 -0.764,-0.205 -1.099,-0.26 -0.334,-0.055 -0.644,-0.083 -0.932,-0.083 -0.702,0 -1.234,0.146 -1.593,0.438 -0.36,0.292 -0.54,0.726 -0.54,1.302 0,0.685 0.727,2.086 2.183,4.202 0.289,0.406 0.508,0.724 0.661,0.952 1.438,2.115 2.604,3.887 3.497,5.313 0.893,1.426 1.674,2.744 2.342,3.955 -0.076,0.245 -0.165,0.482 -0.266,0.711 -0.102,0.228 -0.216,0.464 -0.343,0.71 0.542,0.271 1.06,0.472 1.556,0.603 0.494,0.132 0.979,0.197 1.453,0.197 0.905,0 1.585,-0.239 2.037,-0.717 C 3.036,3.667 3.432,2.708 3.771,1.27 3.957,0.474 4.215,-0.652 4.545,-2.107 5.84,-7.744 6.923,-11.134 7.795,-12.276"
             style="fill:#023573;fill-opacity:1;fill-rule:nonzero;stroke:none"
             id="path90" /></g><g
           id="g92"
           transform="translate(132.1313,29.7549)"><path
             d="m 0,0 c 0,-0.246 -0.087,-0.451 -0.26,-0.616 -0.174,-0.165 -0.413,-0.247 -0.718,-0.247 -0.304,0 -0.543,0.082 -0.717,0.247 -0.173,0.165 -0.26,0.37 -0.26,0.616 0,0.245 0.087,0.45 0.26,0.615 0.174,0.165 0.413,0.248 0.717,0.248 0.305,0 0.544,-0.083 0.718,-0.248 C -0.087,0.45 0,0.245 0,0"
             style="fill:#231f20;fill-opacity:1;fill-rule:nonzero;stroke:none"
             id="path94" /></g><g
           id="g96"
           transform="translate(140.6245,31.8115)"><path
             d="M 0,0 C 0,0.537 -0.188,0.992 -0.565,1.364 -0.941,1.736 -1.403,1.923 -1.949,1.923 -2.49,1.923 -2.95,1.736 -3.326,1.364 -3.703,0.992 -3.891,0.543 -3.891,0.019 c 0,-0.479 0.169,-0.872 0.508,-1.178 0.338,-0.307 0.817,-0.46 1.434,-0.46 0.614,0 1.092,0.153 1.435,0.46 C -0.171,-0.853 0,-0.466 0,0 M 1.301,5.521 V -1.41 h 0.222 c 0.31,0 0.532,-0.06 0.667,-0.181 0.135,-0.12 0.203,-0.278 0.203,-0.472 0,-0.191 -0.067,-0.346 -0.2,-0.467 C 2.06,-2.65 1.836,-2.711 1.523,-2.711 H 0 v 0.317 c -0.296,-0.173 -0.606,-0.304 -0.93,-0.393 -0.324,-0.089 -0.659,-0.133 -1.006,-0.133 -0.978,0 -1.765,0.282 -2.361,0.847 -0.597,0.565 -0.895,1.268 -0.895,2.11 0,0.881 0.313,1.632 0.939,2.254 0.627,0.622 1.39,0.934 2.292,0.934 0.338,0 0.67,-0.053 0.996,-0.157 C -0.639,2.965 -0.317,2.81 0,2.602 v 1.619 h -0.222 c -0.313,0 -0.537,0.06 -0.67,0.18 -0.133,0.121 -0.2,0.277 -0.2,0.467 0,0.194 0.067,0.353 0.2,0.473 0.133,0.121 0.357,0.18 0.67,0.18 z"
             style="fill:#231f20;fill-opacity:1;fill-rule:nonzero;stroke:none"
             id="path98" /></g><g
           id="g100"
           transform="translate(148.5654,32.624)"><path
             d="M 0,0 C -0.199,0.372 -0.459,0.65 -0.781,0.834 -1.103,1.019 -1.485,1.11 -1.93,1.11 -2.37,1.11 -2.75,1.019 -3.072,0.834 -3.394,0.65 -3.656,0.372 -3.859,0 Z m 1.441,-1.302 h -5.338 c 0.135,-0.339 0.375,-0.611 0.72,-0.819 0.345,-0.207 0.811,-0.311 1.4,-0.311 0.482,0 1.123,0.104 1.923,0.311 0.33,0.085 0.559,0.127 0.686,0.127 0.173,0 0.319,-0.061 0.438,-0.184 0.118,-0.123 0.177,-0.277 0.177,-0.463 0,-0.17 -0.063,-0.313 -0.19,-0.431 -0.17,-0.157 -0.582,-0.307 -1.238,-0.449 -0.656,-0.141 -1.287,-0.211 -1.892,-0.211 -1.041,0 -1.873,0.294 -2.497,0.881 -0.625,0.588 -0.937,1.312 -0.937,2.171 0,0.914 0.338,1.659 1.013,2.232 0.675,0.573 1.452,0.86 2.333,0.86 0.528,0 1.014,-0.094 1.456,-0.279 C -0.062,1.946 0.267,1.745 0.482,1.529 0.787,1.216 1.039,0.829 1.238,0.367 1.373,0.046 1.441,-0.326 1.441,-0.75 Z"
             style="fill:#231f20;fill-opacity:1;fill-rule:nonzero;stroke:none"
             id="path102" /></g><g
           id="g104"
           transform="translate(154.5513,30.6807)"><path
             d="m 0,0 1.403,2.883 c -0.347,0 -0.57,0.029 -0.667,0.088 -0.211,0.132 -0.317,0.32 -0.317,0.565 0,0.191 0.066,0.346 0.2,0.467 0.133,0.12 0.357,0.181 0.67,0.181 h 1.783 c 0.313,0 0.536,-0.061 0.67,-0.181 0.133,-0.121 0.2,-0.278 0.2,-0.474 C 3.942,3.34 3.875,3.184 3.742,3.063 3.608,2.942 3.385,2.883 3.072,2.883 H 2.856 L 0.679,-1.58 h -1.358 l -2.177,4.463 h -0.185 c -0.313,0 -0.536,0.059 -0.669,0.18 -0.134,0.121 -0.2,0.279 -0.2,0.473 0,0.191 0.066,0.346 0.2,0.467 0.133,0.12 0.356,0.181 0.669,0.181 h 1.746 c 0.309,0 0.53,-0.061 0.663,-0.181 0.134,-0.121 0.2,-0.278 0.2,-0.474 0,-0.24 -0.101,-0.425 -0.304,-0.551 -0.102,-0.064 -0.328,-0.095 -0.68,-0.095 z"
             style="fill:#231f20;fill-opacity:1;fill-rule:nonzero;stroke:none"
             id="path106" /></g></g></g></g></svg>
